/* XPM */
static char * pixmap[] = {
/* width height num_colors chars_per_pixel */
"32 32 97 2",
/* colors */
"   c #FFFCED",
"!  c #FF0000",
"#  c #FBF8E9",
"$  c #F8F4E5",
"%  c #F7F4E5",
"&  c #F40000",
"'  c #F3F0E1",
"(  c #F1ECDE",
")  c #F12F2C",
"*  c #F10000",
"+  c #EFBCB1",
",  c #EDE8DA",
"-  c #EDACA2",
".  c #ED0000",
"/  c #EC0707",
"0  c #EAE4D6",
"1  c #EA3F3B",
"2  c #EA1F1D",
"3  c #E9D4C7",
"4  c #E90000",
"5  c #E8CCC0",
"6  c #E72B28",
"7  c #E6DCCF",
"8  c #E67D76",
"9  c #E67A73",
":  c #E63F3B",
";  c #E63B37",
"<  c #E60F0E",
"=  c #E60000",
">  c #E5D8CB",
"?  c #E51716",
"@  c #E49188",
"A  c #E41B1A",
"B  c #E38D84",
"C  c #E27D76",
"D  c #E15A55",
"E  c #E13F3B",
"F  c #E10000",
"G  c #E02321",
"H  c #DFC4B8",
"I  c #DF3F3B",
"J  c #DDACA2",
"K  c #DD0000",
"L  c #DC1F1D",
"M  c #DC0303",
"N  c #DA6660",
"O  c #DA3F3B",
"P  c #D93734",
"Q  c #D90B0B",
"R  c #D90303",
"S  c #D90000",
"T  c #D8C4B8",
"U  c #D68D84",
"V  c #D40000",
"W  c #D1958C",
"X  c #D13F3B",
"Y  c #D10000",
"Z  c #CEA89E",
"[  c #CE8981",
"]  c #CE4742",
"^  c #CE2F2C",
"_  c #CD9188",
"`  c #CC9D93",
"a  c #CC9990",
"b  c #CC0000",
"c  c #CBACA2",
"d  c #CB9188",
"e  c #CA0F0E",
"f  c #C96E68",
"g  c #C90000",
"h  c #C87A73",
"i  c #C85E59",
"j  c #C80707",
"k  c #C7857D",
"l  c #C63F3B",
"m  c #C57D76",
"n  c #C40B0B",
"o  c #C40000",
"p  c #C27D76",
"q  c #C2726B",
"r  c #C20F0E",
"s  c #C10000",
"t  c #C00303",
"u  c #BE7D76",
"v  c #BD4F4A",
"w  c #BD0000",
"x  c #BC3330",
"y  c #BB3F3B",
"z  c #B97D76",
"{  c #B90000",
"|  c #B61F1D",
"}  c #B60000",
"~  c #B20000",
" ! c #B03F3B",
"!! c #AD0000",
"#! c #AB0000",
"$! c #A21B1A",
/* pixels */
"! ! ! ! ! ! ! ! ! ! ! ! ! ! ! ! ! ! ! ! ! ! ! ! ! ! ! ! ! ! ! ! ",
"!                                                             ! ",
"!                                                             ! ",
"!                                                             ! ",
"!           ( z u p m m m m m m a ` Z 0                       ! ",
"!           7 !!{ s g b b b b g g g o w x T                   ! ",
"!           7 { g V S K K S S S S S V Y g t q #               ! ",
"!           7 o V K = 4 = = F F F F F F S Y o k               ! ",
"!           7 b K 4 . . 4 = = F F = 4 4 = K Y r ,             ! ",
"!           7 Y F 4 * * 2 8 C C D A 4 . . = K b d             ! ",
"!           7 Y F . * . :         # ; . . 4 F Y f             ! ",
"!           7 Y F 4 . 4 E           @ 4 * . = V i             ! ",
"!           7 Y F 4 . 4 E           B 4 . 4 F V f             ! ",
"!           7 Y F . . . E         3 G 4 . 4 F Y _             ! ",
"!           7 Y F . * . < I O P Q K = 4 4 = S e (             ! ",
"!           7 Y F . * * . = F F F = 4 . 4 F V W               ! ",
"!           7 Y F . & & * . 4 4 . . . . 4 M U                 ! ",
"!           7 Y F . & & & * * * * * & . 6 5                   ! ",
"!           7 Y F . & & & * * * * & & * ? (                   ! ",
"!           7 Y F . * & ) + - / * * * . = N                   ! ",
"!           7 Y F 4 * . 1     9 4 . . . = R H                 ! ",
"!           7 Y F 4 . 4 E     $ L F 4 4 4 K ^ #               ! ",
"!           7 Y K = = F O       J S F 4 = F Y [               ! ",
"!           7 g S F F S X         ] V K F K V n 7             ! ",
"!           7 o Y V V Y l         > j V S S Y o v             ! ",
"!           7 { o g g s y           h o b b g s ~ c           ! ",
"!           7 !!} { { ~  !          % | w s w } #!$!'         ! ",
"!                                                             ! ",
"!                                                             ! ",
"!                                                             ! ",
"!                                                             ! ",
"! ! ! ! ! ! ! ! ! ! ! ! ! ! ! ! ! ! ! ! ! ! ! ! ! ! ! ! ! ! ! ! "
};
